<svg id="Group_12496" data-name="Group 12496" xmlns="http://www.w3.org/2000/svg" xmlns:xlink="http://www.w3.org/1999/xlink" width="106.123" height="25.437" viewBox="0 0 106.123 25.437">
  <defs>
    <clipPath id="clip-path">
      <rect id="Rectangle_11984" data-name="Rectangle 11984" width="106.123" height="25.437" fill="none"/>
    </clipPath>
  </defs>
  <g id="Group_12496-2" data-name="Group 12496" clip-path="url(#clip-path)">
    <path id="Path_20530" data-name="Path 20530" d="M23.6,8.65c-.049.157-.1.313-.157.466h-5.6a3.058,3.058,0,0,0,.372-.466Zm-5.056-.683a3.08,3.08,0,0,1-.148.371h5.3c.033-.123.055-.248.082-.371Zm4.81,1.368H17.6a3.036,3.036,0,0,1-1.012.558H23.1q.134-.275.249-.558m-6.7-4.108h7.231A6.133,6.133,0,0,0,17.575,0H4.455L3.534,5.226H16.653Zm2.006,2.056a2.217,2.217,0,0,1-.024.277h5.226c.016-.092.022-.185.034-.277Zm4.376,2.735H4.431l-.922,5.228H14.888a1.957,1.957,0,0,1,1.973,2.4,2.987,2.987,0,0,1-2.818,2.395H.922L0,25.263H13.12a9.5,9.5,0,0,0,8.968-7.621,6.625,6.625,0,0,0-1.009-5.01,9.719,9.719,0,0,0,1.956-2.614m-4.824-4.1c.024.029.046.059.067.09h5.685c0-.03-.007-.059-.008-.09Zm.364.685a1.615,1.615,0,0,1,.045.183h5.333c0-.062,0-.121.005-.183Z" fill="#ffb900"/>
    <path id="Path_20531" data-name="Path 20531" d="M386.12,28.414h3.168a1.226,1.226,0,0,0,.123.273h-3.3c0-.09,0-.182.007-.273m.008-.185h3.119a1.326,1.326,0,0,1-.01-.219h-3.082c-.008.074-.02.146-.026.219m.021.915h3.835a1.122,1.122,0,0,1-.48-.328h-3.383c.007.111.013.22.028.328m4.766-2.746h12.432l.542-3.077H391.457a5.593,5.593,0,0,0-4.8,3.077Zm-4.618.915h3.139a1.091,1.091,0,0,1,.065-.107h-3.168c-.012.034-.025.07-.036.107m13.093,1.9H386.162a3.61,3.61,0,0,0,3.713,3.075h8.97a1.151,1.151,0,0,1,1.161,1.41,1.756,1.756,0,0,1-1.658,1.41H385.661l-.542,3.075h12.688a5.592,5.592,0,0,0,5.277-4.485,3.664,3.664,0,0,0-3.694-4.485m-13.2-1.447h3.075c.012-.055.025-.109.042-.164h-3.081c-.013.055-.026.108-.037.164m.262-.915H389.8c.02-.018.037-.036.058-.053h-3.38l-.024.053" transform="translate(-300.355 -18.189)" fill="#ffb900"/>
    <path id="Path_20532" data-name="Path 20532" d="M311.031,38.122c-.054.009-.111.017-.166.024L311.419,35c.058-.02.118-.041.173-.065Zm-.088-3.017-.543,3.082c.074,0,.148-.008.22-.015l.547-3.1a1.761,1.761,0,0,1-.224.037m1.095-.411c-.039.028-.079.054-.12.079l-.581,3.29c.038-.008.076-.017.112-.026Zm-.221,3.243a.515.515,0,0,0,.055-.018l.642-3.632c-.022.022-.042.046-.065.069Zm3.029-14.609-2.6,14.761-.02.106a2.554,2.554,0,0,1-2.412,2.049H299.564l-.542,3.077h10.252a6.391,6.391,0,0,0,6.031-5.126l.9-5.127,1.712-9.739Zm-4.9,14.867h.273l.542-3.077h-.273Zm-.533,0,.542-3.077H303.8a1.676,1.676,0,0,1-1.689-2.051l1.788-9.739h-3.075l-1.788,9.739a4.188,4.188,0,0,0,4.223,5.127Zm.617-3.077-.542,3.077h.328l.542-3.077Z" transform="translate(-233.155 -18.193)" fill="#ffb900"/>
    <path id="Path_20533" data-name="Path 20533" d="M220.3,35.113h.107l-.542,3.077h-.107Zm-.033,3.077.543-3.077h-.054l-.542,3.077Zm-2.011,0,.542-3.077h-.328l-.542,3.077Zm.585,0h.217l.543-3.077h-.219Zm2.4-14.867h-7.69a6.389,6.389,0,0,0-6.031,5.126l-.814,4.614a4.188,4.188,0,0,0,4.223,5.126h6.92l.542-3.077h-6.92a1.675,1.675,0,0,1-1.689-2.049l.814-4.614a2.556,2.556,0,0,1,2.412-2.049H220.7a1.675,1.675,0,0,1,1.691,2.049l-1.175,6.664-.543,3.077h3.077l1.717-9.74a4.188,4.188,0,0,0-4.221-5.126M218.382,38.19h.273l.542-3.077h-.273Zm.914,0h.164L220,35.113h-.162Z" transform="translate(-161.149 -18.19)" fill="#ffb900"/>
    <path id="Path_20534" data-name="Path 20534" d="M128.58,13.686h-.219l.543-3.077h.219Zm.14-3.077h-.273l-.542,3.077h.273Zm-.731,0-.542,3.077h.328l.542-3.077Zm2.288,0-.543,3.077h.054l.542-3.077Zm-.753,0h-.164l-.542,3.077h.163Zm1.844-3.588-.633,3.588-.543,3.077h0l-1.175,6.664a2.558,2.558,0,0,1-2.413,2.051h-7.689a1.676,1.676,0,0,1-1.689-2.051l.814-4.614a2.556,2.556,0,0,1,2.412-2.049h6.92l.543-3.077H121a6.389,6.389,0,0,0-6.031,5.126l-.814,4.614a4.188,4.188,0,0,0,4.222,5.126h7.689a6.39,6.39,0,0,0,6.031-5.126l2.35-13.329Zm-1.441,3.588h-.107l-.542,3.077h.107Z" transform="translate(-88.965 -5.476)" fill="#ffb900"/>
    <path id="Path_20535" data-name="Path 20535" d="M470.81,9.343a1.216,1.216,0,0,1-.934-.4,1.183,1.183,0,0,1-.3-.967,1.45,1.45,0,0,1,.505-.965,1.505,1.505,0,0,1,1.018-.392,1.213,1.213,0,0,1,.931.392,1.184,1.184,0,0,1,.3.965,1.547,1.547,0,0,1-1.518,1.362m-.965-1.362a1.027,1.027,0,0,0,.234.8.934.934,0,0,0,.757.334,1.155,1.155,0,0,0,.822-.331,1.273,1.273,0,0,0,.4-.806,1.021,1.021,0,0,0-.229-.8.939.939,0,0,0-.752-.327,1.174,1.174,0,0,0-.827.327,1.241,1.241,0,0,0-.4.8m.741.786h-.239L470.51,7.2h.611q.538,0,.493.446a.456.456,0,0,1-.44.432l.363.69h-.267l-.342-.679h-.273ZM471,7.886a.5.5,0,0,0,.258-.055.245.245,0,0,0,.107-.2.183.183,0,0,0-.061-.167.388.388,0,0,0-.257-.063h-.322l-.052.485Z" transform="translate(-366.213 -5.166)" fill="#ffb900"/>
    <path id="Path_20536" data-name="Path 20536" d="M113.167,103.5a2.577,2.577,0,0,1,.565-.058.937.937,0,0,1,.638.2.609.609,0,0,1,.19.472.9.9,0,0,1-.313.681,1.234,1.234,0,0,1-.789.248,1.876,1.876,0,0,1-.267-.019l-.2,1.045h-.317Zm.074,1.253a1.18,1.18,0,0,0,.259.027.665.665,0,0,0,.735-.642c0-.309-.221-.433-.518-.433a1.173,1.173,0,0,0-.282.027Z" transform="translate(-87.876 -80.676)" fill="#ffb900"/>
    <path id="Path_20537" data-name="Path 20537" d="M125.094,104.912h-.948l-.178.952h1.068l-.054.275h-1.389l.5-2.608h1.331l-.054.275h-1.006l-.158.836h.948Z" transform="translate(-96.39 -80.744)" fill="#ffb900"/>
    <path id="Path_20538" data-name="Path 20538" d="M134.351,103.5a2.843,2.843,0,0,1,.569-.058.923.923,0,0,1,.623.19.564.564,0,0,1,.193.433.81.81,0,0,1-.619.754l0,.008c.182.062.271.255.29.526a4.356,4.356,0,0,0,.081.716h-.333a5.961,5.961,0,0,1-.062-.631c-.019-.356-.151-.507-.41-.507h-.286l-.213,1.137h-.321Zm.093,1.184h.286a.612.612,0,0,0,.669-.58c0-.279-.209-.4-.5-.4a1.076,1.076,0,0,0-.271.027Z" transform="translate(-104.398 -80.676)" fill="#ffb900"/>
    <path id="Path_20539" data-name="Path 20539" d="M144.823,105.585a.987.987,0,0,0,.553.166.513.513,0,0,0,.565-.491c0-.193-.112-.337-.383-.488-.333-.178-.518-.387-.518-.669a.808.808,0,0,1,.882-.766,1,1,0,0,1,.534.139l-.116.259a.889.889,0,0,0-.453-.12.468.468,0,0,0-.514.426c0,.213.131.333.4.484a.765.765,0,0,1,.5.7.837.837,0,0,1-.94.8,1.082,1.082,0,0,1-.627-.178Z" transform="translate(-112.857 -80.593)" fill="#ffb900"/>
    <path id="Path_20540" data-name="Path 20540" d="M157.84,104.406a1.841,1.841,0,0,1-.472,1.261,1.243,1.243,0,0,1-.894.364.969.969,0,0,1-.99-1.06,1.87,1.87,0,0,1,.5-1.281,1.273,1.273,0,0,1,.874-.352.953.953,0,0,1,.983,1.068m-1.621-.534a1.637,1.637,0,0,0-.4,1.071c0,.426.189.816.7.816a.85.85,0,0,0,.6-.259,1.681,1.681,0,0,0,.387-1.079c0-.372-.12-.813-.688-.813a.826.826,0,0,0-.6.263" transform="translate(-121.262 -80.593)" fill="#ffb900"/>
    <path id="Path_20541" data-name="Path 20541" d="M168.934,106.139l.5-2.608h.352l.6,1.478a5.568,5.568,0,0,1,.228.727l.008,0a6.72,6.72,0,0,1,.108-.816l.263-1.385h.305l-.5,2.608h-.317l-.592-1.474a4.881,4.881,0,0,1-.244-.75l-.012,0c-.027.244-.07.5-.135.859l-.259,1.362Z" transform="translate(-131.752 -80.744)" fill="#ffb900"/>
    <path id="Path_20542" data-name="Path 20542" d="M181.784,105.315l-.414.824h-.341l1.35-2.608h.379l.36,2.608h-.329l-.1-.824Zm.874-.256-.1-.754c-.016-.135-.035-.325-.046-.48H182.5c-.07.155-.135.317-.213.476l-.391.758Z" transform="translate(-141.185 -80.744)" fill="#ffb900"/>
    <path id="Path_20543" data-name="Path 20543" d="M194.517,103.531h.321l-.445,2.329h1.052l-.054.279h-1.369Z" transform="translate(-151.317 -80.744)" fill="#ffb900"/>
    <path id="Path_20544" data-name="Path 20544" d="M210.36,103.81H209.6l.054-.278H211.5l-.054.278h-.766l-.441,2.329h-.321Z" transform="translate(-163.465 -80.744)" fill="#ffb900"/>
    <path id="Path_20545" data-name="Path 20545" d="M219.829,103.5a2.843,2.843,0,0,1,.569-.058.922.922,0,0,1,.623.19.564.564,0,0,1,.193.433.81.81,0,0,1-.619.754l0,.008c.182.062.271.255.29.526a4.361,4.361,0,0,0,.081.716h-.333a5.962,5.962,0,0,1-.062-.631c-.019-.356-.151-.507-.41-.507h-.286l-.213,1.137h-.321Zm.093,1.184h.286a.612.612,0,0,0,.669-.58c0-.279-.209-.4-.5-.4a1.076,1.076,0,0,0-.271.027Z" transform="translate(-171.062 -80.676)" fill="#ffb900"/>
    <path id="Path_20546" data-name="Path 20546" d="M230.377,105.315l-.414.824h-.34l1.35-2.608h.379l.36,2.608h-.329l-.1-.824Zm.874-.256-.1-.754c-.016-.135-.035-.325-.046-.48H231.1c-.07.155-.135.317-.213.476l-.391.758Z" transform="translate(-179.082 -80.744)" fill="#ffb900"/>
    <path id="Path_20547" data-name="Path 20547" d="M243.431,103.531l-.5,2.608h-.321l.495-2.608Z" transform="translate(-189.215 -80.744)" fill="#ffb900"/>
    <path id="Path_20548" data-name="Path 20548" d="M248.732,106.139l.5-2.608h.352l.6,1.478a5.569,5.569,0,0,1,.228.727l.008,0a6.751,6.751,0,0,1,.108-.816l.263-1.385h.306l-.5,2.608h-.317l-.592-1.474a4.874,4.874,0,0,1-.244-.75l-.012,0c-.027.244-.069.5-.135.859l-.259,1.362Z" transform="translate(-193.986 -80.744)" fill="#ffb900"/>
    <path id="Path_20549" data-name="Path 20549" d="M262.647,103.531l-.5,2.608h-.321l.5-2.608Z" transform="translate(-204.202 -80.744)" fill="#ffb900"/>
    <path id="Path_20550" data-name="Path 20550" d="M267.948,106.139l.5-2.608h.352l.6,1.478a5.549,5.549,0,0,1,.228.727l.008,0a6.76,6.76,0,0,1,.108-.816l.263-1.385h.306l-.5,2.608h-.317l-.592-1.474a4.876,4.876,0,0,1-.244-.75l-.012,0c-.027.244-.069.5-.135.859l-.259,1.362Z" transform="translate(-208.973 -80.744)" fill="#ffb900"/>
    <path id="Path_20551" data-name="Path 20551" d="M283.228,105.931a2.054,2.054,0,0,1-.735.139,1.084,1.084,0,0,1-.851-.325,1.126,1.126,0,0,1-.263-.762,1.529,1.529,0,0,1,1.582-1.574,1.33,1.33,0,0,1,.615.12l-.1.271a1.242,1.242,0,0,0-.549-.112,1.16,1.16,0,0,0-.808.317,1.349,1.349,0,0,0-.391.956.748.748,0,0,0,.832.835,1.044,1.044,0,0,0,.4-.074l.147-.778h-.53l.05-.263h.843Z" transform="translate(-219.448 -80.649)" fill="#ffb900"/>
  </g>
</svg>
